<?xml version="1.0" encoding="UTF-8"?>
<svg width="1900px" height="447px" viewBox="0 0 1900 447" version="1.1" xmlns="http://www.w3.org/2000/svg" xmlns:xlink="http://www.w3.org/1999/xlink">
    <title>flexera</title>
    <g id="Page-1" stroke="none" stroke-width="1" fill="none" fill-rule="evenodd">
        <g id="flexera" fill-rule="nonzero">
            <path d="M197.5,5.01212446 C203.3,6.21212446 206.1,9.01212446 206.1,15.4121245 L206.1,51.7121245 C206.1,57.5121245 203.2,60.3121245 196.9,60.3121245 L158.9,60.3121245 C130.7,60.3121245 118,62.6121245 118,87.4121245 L118,121.612124 C118,123.712124 119.7,125.412124 121.8,125.412124 L190,125.412124 C196.3,125.412124 198.6,128.312124 197.5,134.612124 L190.6,172.012124 C189.4,177.812124 186.6,180.112124 180.8,180.112124 L121.8,180.112124 C119.7,180.112124 118,181.812124 118,183.912124 L118,434.812124 C118,439.512124 114.2,443.312124 109.5,443.312124 L56.9,443.312124 C52.2,443.312124 48.4,439.512124 48.4,434.812124 L48.4,183.912124 C48.4,181.812124 46.7,180.112124 44.6,180.112124 L9.2,180.112124 C2.9,180.112124 0,177.212124 0,171.512124 L0,134.112124 C0,128.312124 2.9,125.512124 9.2,125.512124 L44.6,125.512124 C46.7,125.512124 48.4,123.812124 48.4,121.712124 L48.4,73.7121245 C48.4,5.21212446 99.1,0.0121244599 141.1,0.0121244599 C158.4,-0.18787554 180.3,2.11212446 197.5,5.01212446 Z M316.1,2.71212446 C320.8,2.71212446 324.6,6.51212446 324.6,11.2121245 L324.6,434.812124 C324.6,439.512124 320.8,443.312124 316.1,443.312124 L263.4,443.312124 C258.7,443.312124 254.9,439.512124 254.9,434.812124 L254.9,11.2121245 C254.9,6.51212446 258.7,2.71212446 263.4,2.71212446 L316.1,2.71212446 Z M648.5,278.012124 L648.5,295.312124 C648.5,306.212124 645,310.912124 628.9,310.912124 L455.2,310.912124 C450.3,310.912124 446.4,315.012124 446.7,319.912124 C449.6,373.312124 464.8,385.812124 517.8,385.812124 L616.4,385.812124 C621.1,385.812124 624.9,389.612124 624.9,394.312124 L624.9,430.112124 C624.9,436.412124 622,438.712124 616.8,439.912124 C586.3,444.512124 550.6,446.212124 513.7,446.212124 C401.4,446.212124 376.1,413.912124 376.1,284.412124 C376.1,154.212124 401.4,122.011884 513.7,122.011884 C622,121.912124 647.4,153.012124 648.5,278.012124 L648.5,278.012124 Z M455,260.712124 L569.5,260.712124 C574.3,260.712124 578.2,256.712124 578,251.912124 C576.3,197.012124 562.4,182.412124 513.7,182.412124 C462.8,182.412124 448.3,197.012124 446.5,251.912124 C446.4,256.712124 450.2,260.712124 455,260.712124 L455,260.712124 Z" id="Shape" fill="#00A1DE"></path>
            <path d="M1291.6,278.012124 L1291.6,295.312124 C1291.6,306.212124 1288.1,310.912124 1272,310.912124 L1098.3,310.912124 C1093.4,310.912124 1089.5,315.012124 1089.8,319.912124 C1092.7,373.312124 1107.9,385.812124 1160.9,385.812124 L1259.5,385.812124 C1264.2,385.812124 1268,389.612124 1268,394.312124 L1268,430.112124 C1268,436.412124 1265.1,438.712124 1259.9,439.912124 C1229.4,444.512124 1193.7,446.212124 1156.8,446.212124 C1044.5,446.212124 1019.2,413.912124 1019.2,284.412124 C1019.2,154.212124 1044.5,122.011884 1156.8,122.011884 C1265.1,121.912124 1290.5,153.012124 1291.6,278.012124 Z M1098.1,260.712124 L1212.6,260.712124 C1217.4,260.712124 1221.3,256.712124 1221.1,251.912124 C1219.4,197.012124 1205.5,182.412124 1156.8,182.412124 C1105.9,182.412124 1091.4,197.012124 1089.6,251.912124 C1089.5,256.712124 1093.3,260.712124 1098.1,260.712124 Z M1511.5,128.212124 C1517.3,129.912124 1520.7,132.212124 1520.7,138.612124 L1520.7,173.712124 C1520.7,180.012124 1517.2,182.912124 1510.9,182.312124 L1458.5,182.312124 C1423.9,182.312124 1413.6,188.112124 1413.6,213.412124 L1413.6,434.712124 C1413.6,439.412124 1409.8,443.212124 1405.1,443.212124 L1352.4,443.212124 C1347.7,443.212124 1343.9,439.412124 1343.9,434.712124 L1343.9,195.612124 C1343.9,127.112124 1398.6,121.912124 1441.2,121.912124 C1456.2,121.912124 1495.9,123.612124 1511.5,128.212124 L1511.5,128.212124 Z M1804.1,216.412124 L1804.1,416.812124 C1804.1,424.312124 1802.9,430.012124 1792.6,433.512124 C1762.7,442.112124 1712,446.212124 1663,446.212124 C1582.4,446.212124 1541.5,433.512124 1541.5,350.012124 C1541.5,276.912124 1580.1,258.412124 1650.9,258.412124 L1725.9,258.412124 C1730.6,258.412124 1734.4,254.612124 1734.4,249.912124 L1734.4,228.512124 C1734.4,196.212124 1715.4,182.412124 1669.3,182.412124 L1574.7,182.412124 C1570,182.412124 1566.2,178.612124 1566.2,173.912124 L1566.2,138.612124 C1566.2,131.712124 1568.5,130.512124 1574.3,129.412124 C1608.9,123.112124 1640,121.912124 1669.3,121.912124 C1770.7,121.912124 1804.1,154.212124 1804.1,216.412124 L1804.1,216.412124 Z M1654.9,308.512124 C1624.4,308.512124 1610.6,318.312124 1610.6,347.112124 C1610.6,379.912124 1626.1,388.012124 1668.8,388.012124 C1681.6,388.012124 1708.2,387.112124 1727.6,383.212124 C1731.6,382.412124 1734.4,378.912124 1734.4,374.812124 L1734.4,317.012124 C1734.4,312.312124 1730.6,308.512124 1725.9,308.512124 L1654.9,308.512124 Z" id="Shape" fill="#333333"></path>
            <path d="M864.8,263.012124 L840.2,230.112124 L767.7,130.212124 C765.3,126.712124 762.4,125.012124 758.3,125.012124 L692.4,125.012124 C685.3,125.012124 683.5,129.612124 688.3,135.512124 L789,274.212124 C829.3,325.712124 815.5,351.912124 813.3,355.412124 L864.7,285.512124 C869.8,278.812124 869.8,269.712124 864.8,263.012124 L864.8,263.012124 Z" id="Path" fill="#00A1DE"></path>
            <path d="M789,274.312124 L674.6,432.212124 C671.1,438.012124 672.8,442.712124 679.9,442.712124 L745.2,442.712124 C749.3,442.712124 752.3,439.912124 754,437.512124 L813,355.912124 C813,355.912124 813.1,355.812124 813.3,355.512124 C815.5,352.012124 829.3,325.712124 789,274.312124 L789,274.312124 Z" id="Path" fill="#00549F"></path>
            <g id="Group" transform="translate(856.174907, 124.912124)" fill="#333333">
                <path d="M35.2250926,114.9 C38.0250926,118.7 43.8250926,118.7 46.6250926,114.9 L122.425093,10.5 C127.125093,4.7 125.325093,2.84217094e-14 118.325093,2.84217094e-14 L52.4250926,2.84217094e-14 C48.3250926,2.84217094e-14 45.3250926,1.7 43.0250926,5.2 L0.825092594,63 C-0.275030865,64.4851259 -0.275030865,66.5148741 0.825092594,68 L35.2250926,114.9 L35.2250926,114.9 Z M136.025093,307.3 L46.6250926,183.9 C43.8250926,180 38.0250926,180 35.2250926,183.9 L0.825092594,231.1 C-0.275030865,232.585126 -0.275030865,234.614874 0.825092594,236.1 L56.5250926,312.6 C58.8250926,315.6 61.2250926,317.8 65.3250926,317.8 L130.625093,317.8 C137.825093,317.8 139.525093,313.1 136.025093,307.3 L136.025093,307.3 Z" id="Shape"></path>
            </g>
            <g id="Group" transform="translate(1838.300000, 399.712124)" fill="#333333">
                <path d="M23.5,3.9 L13.9,3.9 L13.9,32.5 L9.6,32.5 L9.6,4 L0,4 L0,0 L23.5,0 L23.5,3.9 L23.5,3.9 Z M61.7,32.5 L57.4,32.5 L57.4,5.5 L47,32.5 L43.9,32.5 L33.4,5.5 L33.4,32.5 L29.2,32.5 L29.2,0 L35.7,0 L45.5,25.5 L55.3,0 L61.7,0 L61.7,32.5 Z" id="Shape"></path>
            </g>
        </g>
    </g>
</svg>